<?xml version="1.0" encoding="UTF-8"?>
<svg version="1.1" xmlns="http://www.w3.org/2000/svg" width="100" height="100">
<path d="M0 0 C33 0 66 0 100 0 C100 33 100 66 100 100 C67 100 34 100 0 100 C0 67 0 34 0 0 Z " fill="#161615" transform="translate(0,0)"/>
<path d="M0 0 C7.9189185 -0.45821635 14.48067778 2.95903226 20.4140625 8.0859375 C26.70224831 14.79804595 30.24656206 20.99053465 30.09375 30.29296875 C30.07344727 31.90014771 30.07344727 31.90014771 30.05273438 33.53979492 C30.03533203 34.3516626 30.01792969 35.16353027 30 36 C25.81303365 36.17518688 21.62701665 36.28115483 17.4375 36.375 C16.25607422 36.42527344 15.07464844 36.47554687 13.85742188 36.52734375 C3.99268442 36.69313766 3.99268442 36.69313766 -0.27734375 33.1640625 C-3.29304923 30.13754467 -3.96036118 27.75313754 -4.1875 23.4375 C-4.1239876 18.48353318 -3.09451385 13.81438185 -2 9 C-1.80921875 8.12988281 -1.6184375 7.25976562 -1.421875 6.36328125 C-0.95533903 4.2405426 -0.47871537 2.12002519 0 0 Z " fill="#F3D3AB" transform="translate(52,18)"/>
<path d="M0 0 C1.16337891 0.00322266 2.32675781 0.00644531 3.52539062 0.00976562 C4.74033203 0.01814453 5.95527344 0.02652344 7.20703125 0.03515625 C8.43357422 0.03966797 9.66011719 0.04417969 10.92382812 0.04882812 C13.95577793 0.0606256 16.98763031 0.07708704 20.01953125 0.09765625 C18.78355114 8.35259081 14.57670202 14.65847298 7.97265625 19.8125 C-0.5741656 25.43630878 -9.00284002 25.83539607 -18.98046875 25.09765625 C-19.97046875 24.76765625 -20.96046875 24.43765625 -21.98046875 24.09765625 C-20.66132927 14.34296693 -18.22994332 8.71692087 -10.6640625 2.296875 C-7.22957707 -0.14949861 -4.06897791 -0.01984867 0 0 Z " fill="#F8D2A3" transform="translate(60.98046875,56.90234375)"/>
<path d="M0 0 C-0.60766827 5.4874286 -1.49576894 10.76513005 -2.8125 16.125 C-2.96525391 16.80175781 -3.11800781 17.47851562 -3.27539062 18.17578125 C-4.97377448 25.11700223 -8.10029528 29.97093336 -14 34 C-17.90776765 35.89998358 -20.987254 36.22006035 -25.3125 36.125 C-26.38113281 36.10695312 -27.44976563 36.08890625 -28.55078125 36.0703125 C-29.76314453 36.03550781 -29.76314453 36.03550781 -31 36 C-31.8992314 26.60802756 -30.37022334 19.82328832 -25 12 C-18.37069285 4.40236709 -10.29319318 -0.87601644 0 0 Z " fill="#F4D3AA" transform="translate(49,18)"/>
<path d="M0 0 C0.66 0 1.32 0 2 0 C1.96519531 1.02480469 1.93039063 2.04960938 1.89453125 3.10546875 C1.86637965 4.46612936 1.83908096 5.8268078 1.8125 7.1875 C1.78736328 7.86103516 1.76222656 8.53457031 1.73632812 9.22851562 C1.67057068 13.72194081 2.20377893 16.46230907 5 20 C8.2835978 23.04941945 10.65072076 23.40320394 15.078125 23.51171875 C16.81835938 23.56489258 16.81835938 23.56489258 18.59375 23.61914062 C19.8003125 23.64169922 21.006875 23.66425781 22.25 23.6875 C23.47203125 23.72166016 24.6940625 23.75582031 25.953125 23.79101562 C28.96865846 23.87347162 31.98390194 23.94263201 35 24 C35 24.66 35 25.32 35 26 C34.34515625 26.01458252 33.6903125 26.02916504 33.015625 26.04418945 C30.00986327 26.11928043 27.00513903 26.21573671 24 26.3125 C22.97003906 26.33505859 21.94007812 26.35761719 20.87890625 26.38085938 C12.14924893 26.6866754 5.17849194 28.15890662 -1.45703125 34.171875 C-4.15960089 37.37390687 -5.59989803 41.08667153 -7 45 C-7.66 45 -8.32 45 -9 45 C-9.02578125 44.33613281 -9.0515625 43.67226562 -9.078125 42.98828125 C-9.43002275 37.50987307 -9.70222323 33.83315225 -14 30 C-18.8080022 26.86920787 -23.40894824 26.36031222 -29 26 C-29 25.34 -29 24.68 -29 24 C-28.2265625 23.97421875 -27.453125 23.9484375 -26.65625 23.921875 C-18.80003699 23.49406142 -12.46783221 22.69555103 -6.91796875 16.78125 C-4.75920987 13.65082979 -3.82562227 10.90551056 -2.8125 7.25 C-1.074883 1.074883 -1.074883 1.074883 0 0 Z " fill="#121212" transform="translate(47,30)"/>
<path d="M0 0 C5.76219112 -0.34573147 10.04096075 -0.34446833 15 3 C17.98767228 5.83042637 18.91766989 7.25902899 19.375 11.375 C18.98036758 15.18978009 18.1867892 18.36545808 17 22 C9.85010333 18.49800979 4.38632682 13.55297539 1.0625 6.1875 C0 3 0 3 0 0 Z " fill="#F7D3A3" transform="translate(19,57)"/>
<path d="M0 0 C1.32 0 2.64 0 4 0 C6.50356732 3.75535098 5.9608592 4.86889414 5.125 9.1875 C4.92132813 10.27417969 4.71765625 11.36085938 4.5078125 12.48046875 C4.34023438 13.31191406 4.17265625 14.14335937 4 15 C3.67 14.34 3.34 13.68 3 13 C2.34 13 1.68 13 1 13 C2 4.42857143 2 4.42857143 3 1 C2.01 0.67 1.02 0.34 0 0 Z " fill="#211E1B" transform="translate(46,17)"/>
<path d="M0 0 C0.33 0.99 0.66 1.98 1 3 C1.66 3 2.32 3 3 3 C2.67 4.98 2.34 6.96 2 9 C2.66 9.33 3.32 9.66 4 10 C2.35 10 0.7 10 -1 10 C-0.67 6.7 -0.34 3.4 0 0 Z " fill="#26221E" transform="translate(37,72)"/>
<path d="M0 0 C1.45792884 -0.05399736 2.91642712 -0.09279177 4.375 -0.125 C5.18710937 -0.14820313 5.99921875 -0.17140625 6.8359375 -0.1953125 C9 0 9 0 11 2 C8.03 2 5.06 2 2 2 C1.67 2.66 1.34 3.32 1 4 C0.67 2.68 0.34 1.36 0 0 Z " fill="#F3D8A9" transform="translate(19,57)"/>
</svg>
