<?xml version="1.0" encoding="UTF-8"?>
<svg version="1.1" xmlns="http://www.w3.org/2000/svg" width="100" height="100">
<path d="M0 0 C3.2586636 1.4264578 5.4024854 3.16704162 7.890625 5.6953125 C8.95410156 6.76845703 8.95410156 6.76845703 10.0390625 7.86328125 C10.76867187 8.60964844 11.49828125 9.35601562 12.25 10.125 C12.99507812 10.87910156 13.74015625 11.63320312 14.5078125 12.41015625 C16.3431342 14.26900772 18.1736191 16.13237005 20 18 C24.70341126 14.07711742 29.14273951 9.98981304 33.4375 5.625 C33.97826172 5.07972656 34.51902344 4.53445312 35.07617188 3.97265625 C36.38646723 2.65076536 37.69358284 1.32572382 39 0 C42.18559952 1.39633107 44.23943845 3.04557493 46.625 5.5625 C49.04521959 8.14015389 49.04521959 8.14015389 52 10 C50.72669411 12.77960675 49.40171491 14.85743296 47.26611328 17.0402832 C46.71859406 17.60378983 46.17107483 18.16729645 45.60696411 18.74787903 C45.01736908 19.34283676 44.42777405 19.93779449 43.8203125 20.55078125 C43.21113983 21.16898239 42.60196716 21.78718353 41.97433472 22.42411804 C40.68761328 23.72531842 39.39808637 25.02374974 38.10595703 26.31958008 C36.12672074 28.31076886 34.16690114 30.31984808 32.20703125 32.33007812 C30.95427704 33.59229029 29.7004081 34.85339726 28.4453125 36.11328125 C27.85976593 36.71836014 27.27421936 37.32343903 26.67092896 37.94685364 C24.99267578 39.60668945 24.99267578 39.60668945 22 42 C18.78110172 41.71091401 17.12423228 40.49933202 14.88378906 38.25610352 C14.30348938 37.68203262 13.7231897 37.10796173 13.12530518 36.51649475 C12.51161072 35.89359055 11.89791626 35.27068634 11.265625 34.62890625 C10.62759949 33.99137924 9.98957397 33.35385223 9.33221436 32.69700623 C7.98723754 31.34969116 6.64594733 29.99868722 5.30810547 28.64428711 C3.25257217 26.56510177 1.18398357 24.49961391 -0.88671875 22.43554688 C-2.19089948 21.12579144 -3.49431191 19.81527044 -4.796875 18.50390625 C-5.41866638 17.88302628 -6.04045776 17.2621463 -6.68109131 16.62245178 C-11 12.23102496 -11 12.23102496 -11 10 C-9.35546875 8.37890625 -9.35546875 8.37890625 -7.1875 6.5625 C-4.68897282 4.45536324 -2.2757944 2.34758602 0 0 Z " fill="#FEBA0D" transform="translate(29,58)"/>
<path d="M0 0 C2.34928154 0.82946229 3.46550445 1.73180512 5.21722412 3.48570251 C5.7975238 4.05977341 6.37782349 4.6338443 6.97570801 5.22531128 C7.89624969 6.15966759 7.89624969 6.15966759 8.83538818 7.11289978 C9.4734137 7.75042679 10.11143921 8.3879538 10.76879883 9.0447998 C12.11377564 10.39211487 13.45506585 11.74311881 14.79290771 13.09751892 C16.84844101 15.17670426 18.91702961 17.24219212 20.98773193 19.30625916 C22.29191266 20.61601459 23.59532509 21.92653559 24.89788818 23.23789978 C25.51967957 23.85877975 26.14147095 24.47965973 26.78210449 25.11935425 C31.10101318 29.51078107 31.10101318 29.51078107 31.10101318 31.74180603 C29.45648193 33.36289978 29.45648193 33.36289978 27.28851318 35.17930603 C24.789986 37.28644279 22.37680758 39.39422001 20.10101318 41.74180603 C16.93492527 40.35294996 14.92037513 38.75152858 12.56976318 36.23008728 C11.92394287 35.55526306 11.27812256 34.88043884 10.61273193 34.18516541 C9.26572509 32.75838437 7.92460788 31.3260211 6.58929443 29.88829041 C5.94347412 29.21733337 5.29765381 28.54637634 4.63226318 27.85508728 C4.05025146 27.23416199 3.46823975 26.61323669 2.86859131 25.97349548 C1.18914256 24.53860288 1.18914256 24.53860288 -0.87652588 24.82237244 C-3.38401348 25.96230463 -4.86516428 27.36845553 -6.78961182 29.33946228 C-7.49859619 30.05811462 -8.20758057 30.77676697 -8.93804932 31.51719666 C-9.66765869 32.27194275 -10.39726807 33.02668884 -11.14898682 33.80430603 C-11.89406494 34.56291931 -12.63914307 35.32153259 -13.40679932 36.10313416 C-15.24445375 37.9761281 -17.07474406 39.85576214 -18.89898682 41.74180603 C-22.05086049 40.24591159 -24.11564626 38.72026446 -26.52398682 36.17930603 C-28.9442064 33.60165214 -28.9442064 33.60165214 -31.89898682 31.74180603 C-30.6464079 27.98406927 -28.8138006 26.38547435 -25.89898682 23.74180603 C-24.56565348 23.07513936 -23.23232015 22.4084727 -21.89898682 21.74180603 C-21.56898682 20.75180603 -21.23898682 19.76180603 -20.89898682 18.74180603 C-18.22879059 15.83600426 -15.35741471 13.26899087 -12.33648682 10.74180603 C-9.46069122 8.31515855 -7.17584951 5.75051745 -4.89898682 2.74180603 C-2.44012639 -0.33176951 -2.44012639 -0.33176951 0 0 Z " fill="#FEBA0D" transform="translate(49.89898681640625,0.2581939697265625)"/>
<path d="M0 0 C0.43570313 0.37511719 0.87140625 0.75023437 1.3203125 1.13671875 C1.91585937 1.64847656 2.51140625 2.16023438 3.125 2.6875 C3.75792969 3.23277344 4.39085937 3.77804688 5.04296875 4.33984375 C6.81640213 5.8442533 8.62132079 7.29792354 10.4375 8.75 C11.283125 9.4925 12.12875 10.235 13 11 C13 13 13 13 11.42578125 14.5859375 C10.72839844 15.17632812 10.03101562 15.76671875 9.3125 16.375 C8.62800781 16.96023437 7.94351563 17.54546875 7.23828125 18.1484375 C4.84765455 20.12602399 2.42270061 22.06183951 0 24 C-3.63 20.37 -7.26 16.74 -11 13 C-9.07859132 9.15718264 -7.4073184 7.19568073 -4.375 4.25 C-3.55773438 3.45078125 -2.74046875 2.6515625 -1.8984375 1.828125 C-0.95871094 0.92320313 -0.95871094 0.92320313 0 0 Z " fill="#FFBA0D" transform="translate(49,38)"/>
<path d="M0 0 C4.18423892 3.50897269 8.19588166 7.08060535 12 11 C10.46356148 14.68069887 8.21849055 16.98775204 5.375 19.75 C4.55773437 20.54921875 3.74046875 21.3484375 2.8984375 22.171875 C2.27195312 22.77515625 1.64546875 23.3784375 1 24 C-3.18423892 20.49102731 -7.19588166 16.91939465 -11 13 C-9.46356148 9.31930113 -7.21849055 7.01224796 -4.375 4.25 C-3.55773437 3.45078125 -2.74046875 2.6515625 -1.8984375 1.828125 C-0.95871094 0.92320313 -0.95871094 0.92320313 0 0 Z " fill="#FFBB0D" transform="translate(88,38)"/>
<path d="M0 0 C0.43570312 0.37511719 0.87140625 0.75023437 1.3203125 1.13671875 C1.91585938 1.64847656 2.51140625 2.16023438 3.125 2.6875 C3.75792969 3.23277344 4.39085937 3.77804688 5.04296875 4.33984375 C6.81640213 5.8442533 8.62132079 7.29792354 10.4375 8.75 C11.283125 9.4925 12.12875 10.235 13 11 C13 11.66 13 12.32 13 13 C11.35546875 14.5859375 11.35546875 14.5859375 9.1875 16.375 C6.35520187 18.7171919 4.10737561 20.98186585 2 24 C-1.3221347 22.5376608 -3.69313983 20.69193394 -6.3125 18.1875 C-7.03050781 17.52105469 -7.74851562 16.85460937 -8.48828125 16.16796875 C-10 14 -10 14 -9.73046875 11.23828125 C-9.48941406 10.49964844 -9.24835937 9.76101562 -9 9 C-8.34 9 -7.68 9 -7 9 C-6.67 8.01 -6.34 7.02 -6 6 C-4.37446717 4.29319053 -2.70884005 2.62339805 -1 1 C-0.67 0.67 -0.34 0.34 0 0 Z " fill="#FFBC0E" transform="translate(10,38)"/>
</svg>
