<?xml version="1.0" encoding="UTF-8"?>
<svg version="1.1" xmlns="http://www.w3.org/2000/svg" width="100" height="100">
<path d="M0 0 C33 0 66 0 100 0 C100 33 100 66 100 100 C67 100 34 100 0 100 C0 67 0 34 0 0 Z " fill="#00EFFD" transform="translate(0,0)"/>
<path d="M0 0 C5.78249329 -1.26607728 11.30967452 -1.99377754 17 0 C24.34679028 5.13119826 30.24477083 12.19169445 36 19 C33.79473419 25.50160656 29.17387797 29.94538466 24.5 34.8125 C24.03679352 35.29721771 23.57358704 35.78193542 23.09634399 36.28134155 C17.64958424 41.86038562 13.12985776 46.17609197 5.08984375 46.46557617 C1.62098896 46.24454244 -1.61008185 45.7822888 -5 45 C-0.32533663 39.37696243 4.67765667 34.20258446 9.875 29.0625 C10.65875 28.28326172 11.4425 27.50402344 12.25 26.70117188 C14.16438581 24.79845915 16.08108034 22.89813829 18 21 C16.5757048 17.74220734 14.84375932 15.61880869 12.3046875 13.14453125 C11.58925781 12.44005859 10.87382813 11.73558594 10.13671875 11.00976562 C9.39035156 10.28466797 8.64398438 9.55957031 7.875 8.8125 C6.39110476 7.36284849 4.90921416 5.91114109 3.4296875 4.45703125 C2.44331299 3.4976062 2.44331299 3.4976062 1.43701172 2.51879883 C0 1 0 1 0 0 Z " fill="#000203" transform="translate(47,40)"/>
<path d="M0 0 C1.04414062 0.25523438 2.08828125 0.51046875 3.1640625 0.7734375 C-0.94728464 5.85852475 -5.38704619 10.16168789 -10.2890625 14.484375 C-13.94845948 17.77334222 -17.40125885 21.25241218 -20.8359375 24.7734375 C-19.4116423 28.03123016 -17.67969682 30.15462881 -15.140625 32.62890625 C-14.42519531 33.33337891 -13.70976563 34.03785156 -12.97265625 34.76367188 C-12.22628906 35.48876953 -11.47992188 36.21386719 -10.7109375 36.9609375 C-9.22704226 38.41058901 -7.74515166 39.86229641 -6.265625 41.31640625 C-5.60804199 41.95602295 -4.95045898 42.59563965 -4.27294922 43.25463867 C-2.8359375 44.7734375 -2.8359375 44.7734375 -2.8359375 45.7734375 C-8.61843079 47.03951478 -14.14561202 47.76721504 -19.8359375 45.7734375 C-27.18272778 40.64223924 -33.08070833 33.58174305 -38.8359375 26.7734375 C-36.23433619 20.77646673 -31.29462124 16.19657881 -26.8359375 11.5234375 C-26.34905457 11.01254578 -25.86217163 10.50165405 -25.36053467 9.97528076 C-17.59906588 2.00241629 -11.43190069 -1.85794703 0 0 Z " fill="#000101" transform="translate(55.8359375,14.2265625)"/>
<path d="M0 0 C3.04332765 1.3584202 5.12309151 2.88463024 7.453125 5.2578125 C8.071875 5.88300781 8.690625 6.50820313 9.328125 7.15234375 C9.96234375 7.80332031 10.5965625 8.45429687 11.25 9.125 C11.8996875 9.78371094 12.549375 10.44242188 13.21875 11.12109375 C14.81711727 12.74296643 16.41061897 14.3693281 18 16 C17.67 16.99 17.34 17.98 17 19 C14.15862758 16.21641519 11.32831845 13.42184273 8.5 10.625 C7.68917969 9.8309375 6.87835938 9.036875 6.04296875 8.21875 C4.89248047 7.07792969 4.89248047 7.07792969 3.71875 5.9140625 C3.00654297 5.2123291 2.29433594 4.5105957 1.56054688 3.78759766 C0 2 0 2 0 0 Z " fill="#00D1D6" transform="translate(65,40)"/>
<path d="M0 0 C3.90285767 1.58667578 6.33520982 4.13350481 9.25 7.125 C10.14203125 8.03507812 11.0340625 8.94515625 11.953125 9.8828125 C12.62859375 10.58148438 13.3040625 11.28015625 14 12 C13.34 12.66 12.68 13.32 12 14 C9.99387601 12.04761147 7.99507567 10.08862178 6 8.125 C5.42765625 7.56941406 4.8553125 7.01382813 4.265625 6.44140625 C2.80549218 4.99865596 1.39850702 3.5025626 0 2 C0 1.34 0 0.68 0 0 Z " fill="#00DCE2" transform="translate(18,43)"/>
<path d="M0 0 C3.7952131 1.49097658 5.61042731 3.75700849 8 7 C5 7 5 7 2.3125 4.625 C0 2 0 2 0 0 Z " fill="#00DCE2" transform="translate(65,40)"/>
</svg>
