<?xml version="1.0" encoding="UTF-8"?>
<svg version="1.1" xmlns="http://www.w3.org/2000/svg" width="100" height="100">
<path d="M0 0 C33 0 66 0 100 0 C100 33 100 66 100 100 C67 100 34 100 0 100 C0 67 0 34 0 0 Z " fill="#010101" transform="translate(0,0)"/>
<path d="M0 0 C8.3984375 -0.1953125 8.3984375 -0.1953125 11 0 C13 2 13 2 13.0625 5.8125 C13.02769531 6.87984375 13.02769531 6.87984375 12.9921875 7.96875 C12.92146759 10.15368641 12.92146759 10.15368641 13.6875 12.8125 C14 15 14 15 12.875 16.625 C9.2085746 19.31371196 4.34907374 18.15349672 0 18 C0 12.06 0 6.12 0 0 Z " fill="#EBEBEB" transform="translate(47,43)"/>
<path d="M0 0 C8.3984375 -0.1953125 8.3984375 -0.1953125 11 0 C13 2 13 2 13.0625 5.8125 C13.02769531 6.87984375 13.02769531 6.87984375 12.9921875 7.96875 C12.92146759 10.15368641 12.92146759 10.15368641 13.6875 12.8125 C14 15 14 15 12.875 16.625 C9.2085746 19.31371196 4.34907374 18.15349672 0 18 C0 12.06 0 6.12 0 0 Z " fill="#EEEEEE" transform="translate(13,43)"/>
<path d="M0 0 C3.24208567 0.35049575 4.61527704 0.56221181 6.8125 3.0625 C7.204375 3.701875 7.59625 4.34125 8 5 C8.99 3.35 9.98 1.7 11 0 C12.32 0.33 13.64 0.66 15 1 C14.65066406 1.54527344 14.30132812 2.09054688 13.94140625 2.65234375 C10.56295447 8.25119443 9.31092785 12.47051512 9 19 C7.68 19 6.36 19 5 19 C4.96132813 18.07380859 4.96132813 18.07380859 4.921875 17.12890625 C4.49051026 10.68784636 2.96932108 5.71766942 0 0 Z " fill="#E7E7E7" transform="translate(29,43)"/>
<path d="M0 0 C4.62 0 9.24 0 14 0 C14 0.99 14 1.98 14 3 C12.35 3 10.7 3 9 3 C9 7.95 9 12.9 9 18 C7.68 18 6.36 18 5 18 C5 13.05 5 8.1 5 3 C3.35 3 1.7 3 0 3 C0 2.01 0 1.02 0 0 Z " fill="#EFEFEF" transform="translate(72,43)"/>
<path d="M0 0 C1.32 0 2.64 0 4 0 C4 6.27 4 12.54 4 19 C2.68 19 1.36 19 0 19 C0 12.73 0 6.46 0 0 Z " fill="#E8A200" transform="translate(65,37)"/>
<path d="M0 0 C1.98 0 3.96 0 6 0 C6 1.32 6 2.64 6 4 C4.02 4 2.04 4 0 4 C0 2.68 0 1.36 0 0 Z " fill="#121212" transform="translate(16,54)"/>
<path d="M0 0 C1.65 0 3.3 0 5 0 C5 1.32 5 2.64 5 4 C3.35 4 1.7 4 0 4 C0 2.68 0 1.36 0 0 Z " fill="#000000" transform="translate(51,54)"/>
<path d="M0 0 C1.65 0 3.3 0 5 0 C5 1.32 5 2.64 5 4 C3.35 4 1.7 4 0 4 C0 2.68 0 1.36 0 0 Z " fill="#0B0B0B" transform="translate(51,46)"/>
<path d="M0 0 C1.65 0 3.3 0 5 0 C5 1.32 5 2.64 5 4 C3.35 4 1.7 4 0 4 C0 2.68 0 1.36 0 0 Z " fill="#0B0B0B" transform="translate(17,46)"/>
</svg>
