<?xml version="1.0" encoding="UTF-8"?>
<svg version="1.1" xmlns="http://www.w3.org/2000/svg" width="100" height="100">
<path d="M0 0 C0 6.93 0 13.86 0 21 C13.365 21.495 13.365 21.495 27 22 C27 30.91 27 39.82 27 49 C34.26 49 41.52 49 49 49 C49 64.05165553 44.54659695 75.28372406 34.1875 86.3125 C24.0553447 95.85785094 12.96533005 99.58684711 -0.75 99.5 C-1.81041504 99.49355469 -2.87083008 99.48710938 -3.96337891 99.48046875 C-18.33559084 99.14556515 -27.61488781 94.00093375 -37.9609375 84.12890625 C-48.41573496 73.14908621 -51.65920821 59.91729728 -51.3125 45.26171875 C-50.65359606 32.9045244 -43.94445294 20.46528582 -35 12 C-24.08019189 3.05182391 -13.86947468 -0.16511279 0 0 Z M-18.8125 28.75 C-24.48531762 34.58489812 -27.83772931 41.19643632 -28.06640625 49.375 C-27.64661493 57.51640747 -24.71267502 64.88455319 -18.625 70.4375 C-10.81090692 76.31889628 -3.69582003 77.12290121 6 76 C13.31304933 73.85959532 18.9744805 69.4631952 23 63 C24.78307698 58.70787898 26 54.66080054 26 50 C16.76 50 7.52 50 -2 50 C-1.67 41.09 -1.34 32.18 -1 23 C-7.80995951 23 -13.0572567 25.16895972 -18.8125 28.75 Z " fill="#0052EB" transform="translate(51,0)"/>
<path d="M0 0 C9.24 0 18.48 0 28 0 C28 9.24 28 18.48 28 28 C18.43 28 8.86 28 -1 28 C-1.020625 23.75125 -1.04125 19.5025 -1.0625 15.125 C-1.071604 13.7858252 -1.08070801 12.44665039 -1.09008789 11.06689453 C-1.09383423 9.49077393 -1.09383423 9.49077393 -1.09765625 7.8828125 C-1.10289307 6.80402832 -1.10812988 5.72524414 -1.11352539 4.61376953 C-1 2 -1 2 0 0 Z " fill="#00E79E" transform="translate(50,22)"/>
</svg>
