<?xml version="1.0" encoding="UTF-8"?>
<svg version="1.1" xmlns="http://www.w3.org/2000/svg" width="200" height="200">
<path d="M0 0 C0.82757813 0.20625 1.65515625 0.4125 2.5078125 0.625 C11.80679468 3.19023646 20.7793136 6.95548789 29 12 C29 12.66 29 13.32 29 14 C29.58265625 14.11472656 30.1653125 14.22945312 30.765625 14.34765625 C33.16523135 15.04824062 34.72860933 15.98192595 36.75 17.4375 C37.36359375 17.86933594 37.9771875 18.30117188 38.609375 18.74609375 C39.06828125 19.15988281 39.5271875 19.57367187 40 20 C40 20.66 40 21.32 40 22 C40.99 22 41.98 22 43 22 C44.36639342 23.6396721 45.6949419 25.31110128 47 27 C48.13501953 27.84111328 48.13501953 27.84111328 49.29296875 28.69921875 C52.71036756 31.60376117 54.9587971 34.85271089 57.4375 38.5625 C57.91977051 39.27921875 58.40204102 39.9959375 58.89892578 40.734375 C66.0039002 51.40500729 70.74302927 61.63262164 74 74 C74.24878906 74.93972656 74.49757812 75.87945312 74.75390625 76.84765625 C77.70427646 90.85675675 77.54341366 108.13639404 74 122 C73.79375 122.82757813 73.5875 123.65515625 73.375 124.5078125 C70.80976354 133.80679468 67.04451211 142.7793136 62 151 C61.34 151 60.68 151 60 151 C59.88527344 151.58265625 59.77054688 152.1653125 59.65234375 152.765625 C58.95175938 155.16523135 58.01807405 156.72860933 56.5625 158.75 C56.13066406 159.36359375 55.69882813 159.9771875 55.25390625 160.609375 C54.84011719 161.06828125 54.42632812 161.5271875 54 162 C53.34 162 52.68 162 52 162 C52 162.99 52 163.98 52 165 C50.3603279 166.36639342 48.68889872 167.6949419 47 169 C46.43925781 169.75667969 45.87851563 170.51335937 45.30078125 171.29296875 C42.39623883 174.71036756 39.14728911 176.9587971 35.4375 179.4375 C34.72078125 179.91977051 34.0040625 180.40204102 33.265625 180.89892578 C22.59499271 188.0039002 12.36737836 192.74302927 0 196 C-0.93972656 196.24878906 -1.87945312 196.49757812 -2.84765625 196.75390625 C-16.85675675 199.70427646 -34.13639404 199.54341366 -48 196 C-48.82757813 195.79375 -49.65515625 195.5875 -50.5078125 195.375 C-59.80679468 192.80976354 -68.7793136 189.04451211 -77 184 C-77 183.34 -77 182.68 -77 182 C-77.58265625 181.88527344 -78.1653125 181.77054688 -78.765625 181.65234375 C-81.16523135 180.95175938 -82.72860933 180.01807405 -84.75 178.5625 C-85.36359375 178.13066406 -85.9771875 177.69882813 -86.609375 177.25390625 C-87.29773438 176.63322266 -87.29773438 176.63322266 -88 176 C-88 175.34 -88 174.68 -88 174 C-88.99 174 -89.98 174 -91 174 C-92.36639342 172.3603279 -93.6949419 170.68889872 -95 169 C-95.75667969 168.43925781 -96.51335937 167.87851563 -97.29296875 167.30078125 C-100.71036756 164.39623883 -102.9587971 161.14728911 -105.4375 157.4375 C-105.91977051 156.72078125 -106.40204102 156.0040625 -106.89892578 155.265625 C-114.0039002 144.59499271 -118.74302927 134.36737836 -122 122 C-122.24878906 121.06027344 -122.49757813 120.12054688 -122.75390625 119.15234375 C-125.70427646 105.14324325 -125.54341366 87.86360596 -122 74 C-121.79375 73.17242187 -121.5875 72.34484375 -121.375 71.4921875 C-118.80976354 62.19320532 -115.04451211 53.2206864 -110 45 C-109.34 45 -108.68 45 -108 45 C-107.88527344 44.41734375 -107.77054688 43.8346875 -107.65234375 43.234375 C-106.95175938 40.83476865 -106.01807405 39.27139067 -104.5625 37.25 C-103.91474609 36.32960938 -103.91474609 36.32960938 -103.25390625 35.390625 C-102.84011719 34.93171875 -102.42632812 34.4728125 -102 34 C-101.34 34 -100.68 34 -100 34 C-100 33.01 -100 32.02 -100 31 C-98.3603279 29.63360658 -96.68889872 28.3050581 -95 27 C-94.15888672 25.86498047 -94.15888672 25.86498047 -93.30078125 24.70703125 C-90.39623883 21.28963244 -87.14728911 19.0412029 -83.4375 16.5625 C-82.72078125 16.08022949 -82.0040625 15.59795898 -81.265625 15.10107422 C-70.59499271 7.9960998 -60.36737836 3.25697073 -48 0 C-47.06027344 -0.24878906 -46.12054688 -0.49757812 -45.15234375 -0.75390625 C-31.14324325 -3.70427646 -13.86360596 -3.54341366 0 0 Z " fill="#072723" transform="translate(124,2)"/>
<path d="M0 0 C0 0.66 0 1.32 0 2 C0.556875 2.226875 1.11375 2.45375 1.6875 2.6875 C4.66159588 4.37550036 6.72008865 6.46676517 9 9 C9 9.66 9 10.32 9 11 C9.66 11 10.32 11 11 11 C21.02820426 32.06247432 22.80794429 53.47885393 16.15625 75.8359375 C11.76635977 87.83244788 5.51693633 96.00225438 -6.0625 101.4375 C-12.62052698 102.6932924 -18.74514456 101.11125758 -24.3125 97.5 C-25.1478125 96.7575 -25.1478125 96.7575 -26 96 C-26 95.34 -26 94.68 -26 94 C-27.485 93.505 -27.485 93.505 -29 93 C-30.7890625 90.41796875 -30.7890625 90.41796875 -32.625 87.1875 C-33.23601562 86.12917969 -33.84703125 85.07085937 -34.4765625 83.98046875 C-35.71069732 81.56599472 -36.5265992 79.64208827 -37 77 C-37.66 77 -38.32 77 -39 77 C-43 71.58823529 -43 71.58823529 -43 69 C-44.485 68.505 -44.485 68.505 -46 68 C-46 67.34 -46 66.68 -46 66 C-46.99 66 -47.98 66 -49 66 C-49.33 65.34 -49.66 64.68 -50 64 C-55.14674954 61.59229314 -60.32354903 60.35738291 -66 61 C-69.25058324 62.41623241 -69.25058324 62.41623241 -72 64 C-72.66 64 -73.32 64 -74 64 C-74 64.66 -74 65.32 -74 66 C-75.04994141 66.80244141 -75.04994141 66.80244141 -76.12109375 67.62109375 C-79.80705431 70.66688748 -82.29354215 74.19292494 -85.0625 78.0625 C-91.65351897 87.25372121 -91.65351897 87.25372121 -95 89 C-99.67952402 89.71134344 -104.31648778 89.56117074 -108.8125 88.0625 C-117.69226533 79.69014983 -120.5817776 69.33257266 -121.11010742 57.54296875 C-121.16877803 55.02780684 -121.18556476 52.51581364 -121.1875 50 C-121.19974609 49.16210938 -121.21199219 48.32421875 -121.22460938 47.4609375 C-121.24843865 37.19846497 -119.34910577 27.0711858 -111.9375 19.5 C-108.03518132 16.41346777 -104.429436 16.31232369 -99.578125 16.6171875 C-93.25045484 17.55675065 -90.05194755 20.66883177 -86.1015625 25.37890625 C-85 27 -85 27 -85 29 C-84.34 29 -83.68 29 -83 29 C-81.59765625 30.4609375 -81.59765625 30.4609375 -80.0625 32.375 C-78.08013383 34.83901524 -76.69300345 36.20466437 -74 38 C-74 38.66 -74 39.32 -74 40 C-73.236875 40.144375 -72.47375 40.28875 -71.6875 40.4375 C-69 41 -69 41 -66 42 C-59.66862103 42.43664683 -54.89046811 41.2907376 -49 39 C-49 38.34 -49 37.68 -49 37 C-48.21625 36.38125 -47.4325 35.7625 -46.625 35.125 C-44.13770844 33.11147826 -43.14461734 31.91357141 -42 29 C-41.34 29 -40.68 29 -40 29 C-39.80096069 28.12057739 -39.80096069 28.12057739 -39.59790039 27.22338867 C-36.60062903 16.07755352 -29.5130158 4.47769836 -20 -2.0625 C-12.66892252 -4.35346171 -6.92152855 -2.69170555 0 0 Z " fill="#96FAE2" transform="translate(150,50)"/>
<path d="M0 0 C0.82757813 0.20625 1.65515625 0.4125 2.5078125 0.625 C11.80679468 3.19023646 20.7793136 6.95548789 29 12 C29 12.66 29 13.32 29 14 C29.58265625 14.11472656 30.1653125 14.22945312 30.765625 14.34765625 C33.16523135 15.04824062 34.72860933 15.98192595 36.75 17.4375 C37.36359375 17.86933594 37.9771875 18.30117188 38.609375 18.74609375 C39.06828125 19.15988281 39.5271875 19.57367187 40 20 C40 20.66 40 21.32 40 22 C40.99 22 41.98 22 43 22 C44.36639342 23.6396721 45.6949419 25.31110128 47 27 C48.13501953 27.84111328 48.13501953 27.84111328 49.29296875 28.69921875 C52.71036756 31.60376117 54.9587971 34.85271089 57.4375 38.5625 C57.91977051 39.27921875 58.40204102 39.9959375 58.89892578 40.734375 C66.0039002 51.40500729 70.74302927 61.63262164 74 74 C74.24878906 74.93972656 74.49757812 75.87945312 74.75390625 76.84765625 C77.70427646 90.85675675 77.54341366 108.13639404 74 122 C73.79375 122.82757813 73.5875 123.65515625 73.375 124.5078125 C70.80976354 133.80679468 67.04451211 142.7793136 62 151 C61.34 151 60.68 151 60 151 C59.88527344 151.58265625 59.77054688 152.1653125 59.65234375 152.765625 C58.95175938 155.16523135 58.01807405 156.72860933 56.5625 158.75 C56.13066406 159.36359375 55.69882813 159.9771875 55.25390625 160.609375 C54.84011719 161.06828125 54.42632812 161.5271875 54 162 C53.34 162 52.68 162 52 162 C52 162.99 52 163.98 52 165 C50.3603279 166.36639342 48.68889872 167.6949419 47 169 C46.43925781 169.75667969 45.87851563 170.51335937 45.30078125 171.29296875 C42.39623883 174.71036756 39.14728911 176.9587971 35.4375 179.4375 C34.72078125 179.91977051 34.0040625 180.40204102 33.265625 180.89892578 C22.59499271 188.0039002 12.36737836 192.74302927 0 196 C-0.93972656 196.24878906 -1.87945312 196.49757812 -2.84765625 196.75390625 C-16.85675675 199.70427646 -34.13639404 199.54341366 -48 196 C-48.82757813 195.79375 -49.65515625 195.5875 -50.5078125 195.375 C-59.80679468 192.80976354 -68.7793136 189.04451211 -77 184 C-77 183.34 -77 182.68 -77 182 C-77.58265625 181.88527344 -78.1653125 181.77054688 -78.765625 181.65234375 C-81.16523135 180.95175938 -82.72860933 180.01807405 -84.75 178.5625 C-85.36359375 178.13066406 -85.9771875 177.69882813 -86.609375 177.25390625 C-87.29773438 176.63322266 -87.29773438 176.63322266 -88 176 C-88 175.34 -88 174.68 -88 174 C-88.99 174 -89.98 174 -91 174 C-92.36639342 172.3603279 -93.6949419 170.68889872 -95 169 C-95.75667969 168.43925781 -96.51335937 167.87851563 -97.29296875 167.30078125 C-100.71036756 164.39623883 -102.9587971 161.14728911 -105.4375 157.4375 C-105.91977051 156.72078125 -106.40204102 156.0040625 -106.89892578 155.265625 C-114.0039002 144.59499271 -118.74302927 134.36737836 -122 122 C-122.24878906 121.06027344 -122.49757813 120.12054688 -122.75390625 119.15234375 C-125.70427646 105.14324325 -125.54341366 87.86360596 -122 74 C-121.79375 73.17242187 -121.5875 72.34484375 -121.375 71.4921875 C-118.80976354 62.19320532 -115.04451211 53.2206864 -110 45 C-109.34 45 -108.68 45 -108 45 C-107.88527344 44.41734375 -107.77054688 43.8346875 -107.65234375 43.234375 C-106.95175938 40.83476865 -106.01807405 39.27139067 -104.5625 37.25 C-103.91474609 36.32960938 -103.91474609 36.32960938 -103.25390625 35.390625 C-102.84011719 34.93171875 -102.42632812 34.4728125 -102 34 C-101.34 34 -100.68 34 -100 34 C-100 33.01 -100 32.02 -100 31 C-98.3603279 29.63360658 -96.68889872 28.3050581 -95 27 C-94.15888672 25.86498047 -94.15888672 25.86498047 -93.30078125 24.70703125 C-90.39623883 21.28963244 -87.14728911 19.0412029 -83.4375 16.5625 C-82.72078125 16.08022949 -82.0040625 15.59795898 -81.265625 15.10107422 C-70.59499271 7.9960998 -60.36737836 3.25697073 -48 0 C-47.06027344 -0.24878906 -46.12054688 -0.49757812 -45.15234375 -0.75390625 C-31.14324325 -3.70427646 -13.86360596 -3.54341366 0 0 Z M-63 9 C-63 9.66 -63 10.32 -63 11 C-63.70125 11.103125 -64.4025 11.20625 -65.125 11.3125 C-68.39137647 12.09359003 -71.0471852 13.42058743 -74 15 C-74 15.66 -74 16.32 -74 17 C-74.556875 17.09796875 -75.11375 17.1959375 -75.6875 17.296875 C-82.28998383 19.30438697 -88.01155351 24.53435111 -92 30 C-92.77085938 30.59296875 -93.54171875 31.1859375 -94.3359375 31.796875 C-97.18871223 34.15606114 -99.14811012 36.5665931 -101.3125 39.5625 C-102.00988281 40.51253906 -102.70726563 41.46257813 -103.42578125 42.44140625 C-105.26201244 44.92516954 -105.26201244 44.92516954 -105 48 C-105.66 48 -106.32 48 -107 48 C-115.39157437 64.36931768 -120.63265808 78.71767853 -120.5625 97.5 C-120.56334595 98.19810791 -120.56419189 98.89621582 -120.56506348 99.61547852 C-120.52506069 115.17389728 -117.15115579 128.23739829 -110 142 C-109 144 -108 146 -107 148 C-106.34 148 -105.68 148 -105 148 C-104.90203125 148.556875 -104.8040625 149.11375 -104.703125 149.6875 C-102.69561303 156.28998383 -97.46564889 162.01155351 -92 166 C-91.40703125 166.77085937 -90.8140625 167.54171875 -90.203125 168.3359375 C-87.84393886 171.18871223 -85.4334069 173.14811012 -82.4375 175.3125 C-81.01244141 176.35857422 -81.01244141 176.35857422 -79.55859375 177.42578125 C-77.07483046 179.26201244 -77.07483046 179.26201244 -74 179 C-74 179.66 -74 180.32 -74 181 C-57.63068232 189.39157437 -43.28232147 194.63265808 -24.5 194.5625 C-23.45283813 194.56376892 -23.45283813 194.56376892 -22.38452148 194.56506348 C-6.82610272 194.52506069 6.23739829 191.15115579 20 184 C22 183 24 182 26 181 C26 180.34 26 179.68 26 179 C26.556875 178.90203125 27.11375 178.8040625 27.6875 178.703125 C34.28998383 176.69561303 40.01155351 171.46564889 44 166 C44.77085937 165.40703125 45.54171875 164.8140625 46.3359375 164.203125 C49.18871223 161.84393886 51.14811012 159.4334069 53.3125 156.4375 C54.00988281 155.48746094 54.70726562 154.53742188 55.42578125 153.55859375 C57.26201244 151.07483046 57.26201244 151.07483046 57 148 C57.66 148 58.32 148 59 148 C67.26616445 131.87531757 72.58230148 117.75986766 72.4375 99.25 C72.43545563 98.59246735 72.43341125 97.93493469 72.43130493 97.25747681 C72.37882684 86.88714335 71.43530201 77.78876379 68 68 C67.69191406 67.02675781 67.38382813 66.05351563 67.06640625 65.05078125 C66.4167247 63.02091498 65.71683404 61.0071353 65 59 C64.34 59 63.68 59 63 59 C62.896875 58.29875 62.79375 57.5975 62.6875 56.875 C61.90640997 53.60862353 60.57941257 50.9528148 59 48 C58.34 48 57.68 48 57 48 C56.90203125 47.443125 56.8040625 46.88625 56.703125 46.3125 C54.69561303 39.71001617 49.46564889 33.98844649 44 30 C43.40703125 29.22914062 42.8140625 28.45828125 42.203125 27.6640625 C39.84393886 24.81128777 37.4334069 22.85188988 34.4375 20.6875 C33.01244141 19.64142578 33.01244141 19.64142578 31.55859375 18.57421875 C29.07483046 16.73798756 29.07483046 16.73798756 26 17 C26 16.34 26 15.68 26 15 C17.19566822 10.30083641 8.67671297 6.62778177 -1 4 C-2.61370483 3.49315674 -2.61370483 3.49315674 -4.26000977 2.97607422 C-10.43874826 1.36352794 -16.6471032 1.47286345 -23 1.4375 C-23.70310303 1.43121582 -24.40620605 1.42493164 -25.13061523 1.41845703 C-38.60583015 1.36639962 -50.45194136 3.97160622 -63 9 Z " fill="#0E3832" transform="translate(124,2)"/>
</svg>
