<?xml version="1.0" encoding="UTF-8"?>
<svg version="1.1" xmlns="http://www.w3.org/2000/svg" width="100" height="100">
<path d="M0 0 C3.15328048 2.06594238 5.71786089 4.63888386 8.35107422 7.32470703 C10.3272512 9.33248412 12.33713535 11.30396674 14.34765625 13.27734375 C17.38769813 16.27644661 20.42332847 19.27956655 23.4375 22.3046875 C24.07558594 22.94390137 24.71367188 23.58311523 25.37109375 24.24169922 C27.90943742 26.9816799 28.95761484 28.61853354 29.375 32.375 C28.93134295 36.66368479 28.23866314 38.17655008 25 41 C21.625 42.0625 21.625 42.0625 18 42 C12.33679526 38.88196387 8.11239985 34.34289026 3.625 29.75 C2.88894531 29.00492188 2.15289062 28.25984375 1.39453125 27.4921875 C-0.40830047 25.66594238 -2.20626978 23.83517795 -4 22 C-10.36590304 27.24458586 -16.13570612 33.02097322 -21.9375 38.875 C-22.91708237 39.85960919 -23.89689837 40.843986 -24.87695312 41.828125 C-27.25360252 44.21648203 -29.62787356 46.60715212 -32 49 C-30.37843976 53.10108886 -27.4232297 55.83148167 -24.3359375 58.859375 C-23.50783066 59.683237 -23.50783066 59.683237 -22.66299438 60.52374268 C-20.90498185 62.27059293 -19.1401311 64.01034601 -17.375 65.75 C-16.1792292 66.93573591 -14.98391135 68.1219288 -13.7890625 69.30859375 C-10.86459747 72.21105085 -7.93398126 75.1071641 -5 78 C0.22393264 73.65465109 5.02282233 69.04737699 9.72460938 64.1484375 C14.59824883 59.16733777 14.59824883 59.16733777 18 58 C22.16734046 58.07441679 24.26644159 58.36048754 27.4375 61.125 C29.56002454 65.03044515 29.93907566 66.59356805 29 71 C26.8792647 74.09371001 24.33152469 76.69577359 21.67529297 79.33496094 C19.67402665 81.32397818 17.6993334 83.33811198 15.72265625 85.3515625 C12.72309925 88.38982552 9.71958975 91.42382705 6.6953125 94.4375 C6.05609863 95.07558594 5.41688477 95.71367188 4.75830078 96.37109375 C1.37148741 99.50866926 -1.20116817 100.65565029 -5.86401367 100.48095703 C-14.78122906 98.47308021 -24.16344283 84.9414609 -30.5 78.5625 C-31.81226585 77.24520941 -33.12476395 75.92815014 -34.4375 74.61132812 C-37.62768506 71.4102139 -40.81470651 68.20598135 -44 65 C-44.0093457 65.60996826 -44.01869141 66.21993652 -44.02832031 66.84838867 C-44.08221326 69.62889487 -44.16582069 72.40775262 -44.25 75.1875 C-44.27126953 76.62706055 -44.27126953 76.62706055 -44.29296875 78.09570312 C-44.44642854 82.53069106 -44.5536656 85.27697456 -46.921875 89.11328125 C-49.37662267 91.34193374 -50.46234188 91.92668298 -53.75 92.375 C-57.906295 91.8954275 -60.38922464 90.1735764 -63 87 C-63.76190186 83.62304688 -63.76190186 83.62304688 -63.77636719 79.71875 C-63.79213806 78.64705566 -63.79213806 78.64705566 -63.80822754 77.55371094 C-63.83454896 75.20157352 -63.81718884 72.85216289 -63.796875 70.5 C-63.80091898 68.86002078 -63.80674395 67.22004506 -63.81427002 65.58007812 C-63.8231057 62.14678631 -63.8102933 58.71443255 -63.78222656 55.28125 C-63.74803875 50.88567444 -63.76772758 46.49229671 -63.80366135 42.09680176 C-63.82536901 38.71142082 -63.81843072 35.3265589 -63.80289459 31.94116211 C-63.79889918 30.3208795 -63.80377925 28.70054938 -63.81777191 27.08032227 C-63.833059 24.81270032 -63.80973327 22.54860951 -63.77636719 20.28125 C-63.77159363 18.99283203 -63.76682007 17.70441406 -63.76190186 16.37695312 C-62.69852024 11.66376096 -60.98333424 10.6363201 -57 8 C-52.99883483 7.26509211 -51.58221026 7.61185982 -48.1875 9.875 C-45.08357736 12.89023914 -44.86076375 14.58760241 -44.68359375 18.7890625 C-44.64169922 19.73007812 -44.59980469 20.67109375 -44.55664062 21.640625 C-44.51732422 22.62546875 -44.47800781 23.6103125 -44.4375 24.625 C-44.39431641 25.61757813 -44.35113281 26.61015625 -44.30664062 27.6328125 C-44.20038931 30.08839838 -44.09835036 32.54408703 -44 35 C-43.57848663 34.57626602 -43.15697327 34.15253204 -42.72268677 33.71595764 C-38.34596312 29.31715762 -33.96576071 24.92184422 -29.58349609 20.52856445 C-27.94717849 18.88720953 -26.31175837 17.24495937 -24.67724609 15.60180664 C-22.33144182 13.2439106 -19.98245799 10.88922375 -17.6328125 8.53515625 C-16.89942657 7.79660904 -16.16604065 7.05806183 -15.41043091 6.2971344 C-14.7298764 5.61650436 -14.0493219 4.93587433 -13.34814453 4.23461914 C-12.44879684 3.33194054 -12.44879684 3.33194054 -11.53128052 2.411026 C-8.1625952 -0.69310973 -4.33552395 -1.06370723 0 0 Z " fill="#20AF90" transform="translate(67,0)"/>
<path d="M0 0 C2.69990662 1.79993774 4.5418865 3.083773 6 6 C6.43023798 9.87214182 6.31669086 11.52496371 4.125 14.8125 C1.61855093 17.39266816 0.74538327 17.91717964 -2.8125 18.3125 C-6.7307645 17.92835642 -8.21293267 16.70743683 -11 14 C-12.42662219 11.14675563 -12.31033868 9.16545451 -12 6 C-8.54235344 0.81353016 -6.24330406 -0.61208863 0 0 Z " fill="#20AF90" transform="translate(66,41)"/>
</svg>
