<?xml version="1.0" encoding="UTF-8"?>
<svg version="1.1" xmlns="http://www.w3.org/2000/svg" width="100" height="100">
<path d="M0 0 C33 0 66 0 100 0 C100 33 100 66 100 100 C67 100 34 100 0 100 C0 67 0 34 0 0 Z " fill="#0B0B0B" transform="translate(0,0)"/>
<path d="M0 0 C0.33 0.66 0.66 1.32 1 2 C1.66 2 2.32 2 3 2 C3 2.66 3 3.32 3 4 C3.66 4 4.32 4 5 4 C6.50850718 13.93313629 7.8096958 24.04667312 6 34 C5.39739248 37.48173234 5 40.44737179 5 44 C5 44.66 5 45.32 5 46 C9.44409469 45.58831427 11.79812314 42.50291836 14.6875 39.4375 C16.44170114 37.60614124 18.20948587 35.79643318 20 34 C20.33 34 20.66 34 21 34 C23.25352158 52.8042375 23.25352158 52.8042375 18.17578125 59.2890625 C15.0617515 62.60022172 11.73429986 65.41286938 8 68 C7.34 68 6.68 68 6 68 C5.505 61.565 5.505 61.565 5 55 C1.04 59.29 -2.92 63.58 -7 68 C-7.66 67.67 -8.32 67.34 -9 67 C-9 66.67 -9 66.34 -9 66 C-10.98 66.99 -10.98 66.99 -13 68 C-13.99 64.535 -13.99 64.535 -15 61 C-15.33 61 -15.66 61 -16 61 C-17.00511578 53.1577594 -17.21768037 45.33809099 -17.24023438 37.44042969 C-17.25001727 35.37134724 -17.28118338 33.30322918 -17.3125 31.234375 C-17.37900384 22.94194408 -17.37977094 15.9430661 -11.75 9.375 C-10.38875 8.199375 -10.38875 8.199375 -9 7 C-8.10474609 6.20722656 -8.10474609 6.20722656 -7.19140625 5.3984375 C-2.41391185 1.20695592 -2.41391185 1.20695592 0 0 Z " fill="#F8F8F8" transform="translate(46,15)"/>
<path d="M0 0 C0.33 0.66 0.66 1.32 1 2 C1.66 2 2.32 2 3 2 C3 2.66 3 3.32 3 4 C3.66 4 4.32 4 5 4 C6.50850718 13.93313629 7.8096958 24.04667312 6 34 C5.39739248 37.48173234 5 40.44737179 5 44 C5 44.66 5 45.32 5 46 C9.44409469 45.58831427 11.79812314 42.50291836 14.6875 39.4375 C16.44170114 37.60614124 18.20948587 35.79643318 20 34 C20.33 34 20.66 34 21 34 C23.25352158 52.8042375 23.25352158 52.8042375 18.17578125 59.2890625 C15.0617515 62.60022172 11.73429986 65.41286938 8 68 C7.34 68 6.68 68 6 68 C5.505 61.565 5.505 61.565 5 55 C1.04 59.29 -2.92 63.58 -7 68 C-7.66 67.67 -8.32 67.34 -9 67 C-6.79840754 63.44358141 -5.22541714 61.17923238 -1.90185547 58.53662109 C1.77332526 54.89572875 1.73827154 51.38960934 1.83224487 46.39199829 C1.82315094 45.28552948 1.81405701 44.17906067 1.8046875 43.0390625 C1.82524704 41.32050552 1.82524704 41.32050552 1.84622192 39.56723022 C1.88351652 35.91942052 1.87980692 32.27297328 1.875 28.625 C1.89312692 26.14711414 1.91392958 23.66924631 1.9375 21.19140625 C1.98934622 15.12747068 2.00756043 9.06413686 2 3 C0.04290513 4.6789291 -1.89959146 6.37007361 -3.82345581 8.08712769 C-5.12738123 9.2330924 -6.45891047 10.35021654 -7.83889771 11.40335083 C-10.43437395 13.54250554 -11.79233805 15.07942205 -12.54388428 18.41107178 C-12.79054466 21.39183072 -12.83081811 24.3139041 -12.8046875 27.3046875 C-12.81839386 28.38380402 -12.83210022 29.46292053 -12.84622192 30.57473755 C-12.88349936 34.00858332 -12.8798082 37.44098071 -12.875 40.875 C-12.89312818 43.20835592 -12.91393124 45.54169269 -12.9375 47.875 C-12.9893298 53.58347515 -13.0075627 59.29131113 -13 65 C-18.89043358 57.48658195 -17.21397331 46.63617871 -17.24023438 37.44042969 C-17.25001727 35.37134724 -17.28118338 33.30322918 -17.3125 31.234375 C-17.37900384 22.94194408 -17.37977094 15.9430661 -11.75 9.375 C-10.38875 8.199375 -10.38875 8.199375 -9 7 C-8.10474609 6.20722656 -8.10474609 6.20722656 -7.19140625 5.3984375 C-2.41391185 1.20695592 -2.41391185 1.20695592 0 0 Z " fill="#343434" transform="translate(46,15)"/>
<path d="M0 0 C2.25352158 18.8042375 2.25352158 18.8042375 -2.82421875 25.2890625 C-5.9382485 28.60022172 -9.26570014 31.41286938 -13 34 C-13.66 34 -14.32 34 -15 34 C-17.08369235 17.56198254 -17.08369235 17.56198254 -13.64208984 11.67871094 C-4.16219828 0 -4.16219828 0 0 0 Z " fill="#F7F7F7" transform="translate(67,49)"/>
<path d="M0 0 C0.66 0 1.32 0 2 0 C2 0.66 2 1.32 2 2 C2.66 2 3.32 2 4 2 C5.50850718 11.93313629 6.8096958 22.04667312 5 32 C4.39739248 35.48173234 4 38.44737179 4 42 C4 42.66 4 43.32 4 44 C4.66 44.66 5.32 45.32 6 46 C4.74971173 52.21187527 2.2832519 55.48322227 -2.125 59.9375 C-2.68832031 60.52595703 -3.25164063 61.11441406 -3.83203125 61.72070312 C-5.21052286 63.1576054 -6.60379091 64.58030727 -8 66 C-8.66 65.67 -9.32 65.34 -10 65 C-7.79243376 61.43393145 -6.23495045 59.18495943 -2.88818359 56.55029297 C0.02633299 53.66208049 0.47008032 51.51564212 0.68115234 47.45361328 C0.6802075 45.24228545 0.64660524 43.03080817 0.5859375 40.8203125 C0.57744781 39.6524118 0.56895813 38.48451111 0.56021118 37.28121948 C0.52670159 33.56153002 0.45141845 29.84403106 0.375 26.125 C0.34489762 23.5989897 0.31752231 21.07294533 0.29296875 18.546875 C0.22691787 12.36383959 0.12659052 6.1820763 0 0 Z " fill="#585858" transform="translate(47,17)"/>
<path d="M0 0 C0.66 0 1.32 0 2 0 C3.50850718 9.93313629 4.8096958 20.04667312 3 30 C2.7834375 31.7015625 2.7834375 31.7015625 2.5625 33.4375 C2.2840625 34.7059375 2.2840625 34.7059375 2 36 C1.01 36.495 1.01 36.495 0 37 C0 24.79 0 12.58 0 0 Z " fill="#353535" transform="translate(49,19)"/>
<path d="M0 0 C0.33 0.99 0.66 1.98 1 3 C-1.28356246 5.34138543 -3.57813374 7.67166982 -5.875 10 C-6.85146484 11.00160156 -6.85146484 11.00160156 -7.84765625 12.0234375 C-8.47285156 12.65507812 -9.09804688 13.28671875 -9.7421875 13.9375 C-10.3182373 14.52402344 -10.89428711 15.11054688 -11.48779297 15.71484375 C-13 17 -13 17 -15 17 C-14.40141797 10.01654302 -8.52143995 6.51068448 -3.55078125 2.234375 C-2 1 -2 1 0 0 Z M-16 17 C-15.06934867 19.60582371 -14.85082593 20.64198224 -15.9375 23.25 C-16.4634375 24.11625 -16.4634375 24.11625 -17 25 C-16.67 22.36 -16.34 19.72 -16 17 Z " fill="#2C2C2C" transform="translate(46,15)"/>
<path d="M0 0 C0.33 0 0.66 0 1 0 C3.66588227 16.78699465 3.66588227 16.78699465 1 21.92871094 C-1.77396847 25.36521205 -5.15365065 27.83464777 -9 30 C-9.66 30 -10.32 30 -11 30 C-10.49705688 25.93154937 -8.63718936 24.75970625 -5.5 22.3125 C-0.74880159 17.83989801 -0.13410544 14.18424973 0.0625 7.9375 C0.10666012 5.28264859 0.07622086 2.65553493 0 0 Z " fill="#353535" transform="translate(67,53)"/>
<path d="M0 0 C0.66 0 1.32 0 2 0 C2.77071732 4.98051782 3.25056461 9.90197159 3.5625 14.9375 C3.60568359 15.62134766 3.64886719 16.30519531 3.69335938 17.00976562 C3.79803995 18.67302365 3.89937594 20.33649163 4 22 C1.4345406 19.4345406 1.45953913 17.52313332 1 14 C0.67 14 0.34 14 0 14 C0 9.38 0 4.76 0 0 Z " fill="#282828" transform="translate(49,19)"/>
<path d="M0 0 C0.99 0.33 1.98 0.66 3 1 C-3.15034169 8.48291572 -3.15034169 8.48291572 -7 11 C-6.40716379 7.60807637 -5.23256811 5.7892243 -2.9375 3.25 C-2.38964844 2.63640625 -1.84179688 2.0228125 -1.27734375 1.390625 C-0.85582031 0.93171875 -0.43429688 0.4728125 0 0 Z " fill="#3C3C3C" transform="translate(62,49)"/>
<path d="M0 0 C1.32 0 2.64 0 4 0 C4 4.62 4 9.24 4 14 C1.06540254 10.08720339 0.61003626 9.2725511 0.3125 4.75 C0.24675781 3.85796875 0.18101563 2.9659375 0.11328125 2.046875 C0.07589844 1.37140625 0.03851562 0.6959375 0 0 Z " fill="#2D2D2D" transform="translate(29,66)"/>
<path d="M0 0 C0.99 0.33 1.98 0.66 3 1 C2.07347299 2.17539996 1.13336613 3.34010577 0.1875 4.5 C-0.33457031 5.1496875 -0.85664062 5.799375 -1.39453125 6.46875 C-3 8 -3 8 -6 8 C-2.25 2.25 -2.25 2.25 0 0 Z " fill="#333333" transform="translate(43,74)"/>
<path d="M0 0 C0.33 0.99 0.66 1.98 1 3 C0.01 3.99 -0.98 4.98 -2 6 C-3.32 5.34 -4.64 4.68 -6 4 C-4.02 2.68 -2.04 1.36 0 0 Z " fill="#1D1D1D" transform="translate(46,15)"/>
<path d="M0 0 C1.125 1.6875 1.125 1.6875 2 4 C1.125 6.75 1.125 6.75 0 9 C-0.33 9 -0.66 9 -1 9 C-1.09765625 2.84765625 -1.09765625 2.84765625 -1 1 C-0.67 0.67 -0.34 0.34 0 0 Z " fill="#3E3E3E" transform="translate(50,47)"/>
</svg>
