<?xml version="1.0" encoding="UTF-8"?>
<svg version="1.1" xmlns="http://www.w3.org/2000/svg" width="100" height="100">
<path d="M0 0 C4.8489642 1.08956142 7.82974258 4.44310525 10.59765625 8.3984375 C13.27734375 12.86770651 13.27734375 12.86770651 13.27734375 15.51171875 C13.93734375 15.51171875 14.59734375 15.51171875 15.27734375 15.51171875 C15.52484375 14.81046875 15.77234375 14.10921875 16.02734375 13.38671875 C18.33906818 8.06975256 21.18687283 3.45287973 26.27734375 0.51171875 C29.47070824 -0.18589007 32.1314731 -0.41120229 35.27734375 0.51171875 C42.48882293 5.33068366 45.80740861 12.1140905 49.77734375 19.63671875 C51.0365161 21.97332723 52.29692549 24.30926951 53.55859375 26.64453125 C54.47451294 28.35902466 54.47451294 28.35902466 55.40893555 30.1081543 C57.78537143 34.43716156 60.33985992 38.64729745 62.94262695 42.84350586 C65.05059371 47.05751146 65.34120046 50.94634942 64.27734375 55.51171875 C62.16193222 59.13813852 60.17035596 61.04071251 56.27734375 62.51171875 C53.55345482 62.71241189 50.93143981 62.80548757 48.20751953 62.80224609 C47.39727325 62.80896332 46.58702698 62.81568054 45.75222778 62.82260132 C43.07564143 62.84158779 40.39930574 62.84550583 37.72265625 62.84765625 C35.85944516 62.85408374 33.99623509 62.86081206 32.13302612 62.86782837 C28.22749492 62.87980276 24.32205217 62.88350903 20.41650391 62.88232422 C15.41730268 62.88212102 10.41866989 62.90942295 5.41960335 62.94386864 C1.57108974 62.96612991 -2.27728691 62.970162 -6.12585831 62.96910477 C-7.96861861 62.9714619 -9.81138263 62.98029174 -11.65407944 62.9957695 C-14.23446967 63.01541401 -16.81363203 63.00959794 -19.39404297 62.99755859 C-20.15164917 63.00879761 -20.90925537 63.02003662 -21.68981934 63.03161621 C-26.84169913 62.97068055 -29.7701484 61.78536764 -33.72265625 58.51171875 C-36.62295583 54.16126938 -36.54602455 50.61660223 -35.72265625 45.51171875 C-34.00622049 41.21846031 -31.72679515 37.34361203 -29.34765625 33.38671875 C-28.712229 32.29593018 -28.07680176 31.2051416 -27.42211914 30.08129883 C-25.54515742 26.87719724 -23.63782889 23.69308737 -21.72265625 20.51171875 C-20.72909971 18.83076874 -19.73560317 17.14978327 -18.7421875 15.46875 C-17.88445685 14.0437952 -17.02401303 12.62046803 -16.16015625 11.19921875 C-15.58998779 10.25054932 -15.58998779 10.25054932 -15.00830078 9.28271484 C-11.0813214 3.01381511 -7.47653647 -0.36076465 0 0 Z " fill="#3055A9" transform="translate(35.72265625,18.48828125)"/>
<path d="M0 0 C4.24752406 0.9211498 6.65152141 3.10124142 9.26953125 6.4921875 C15.26953125 16.68687777 15.26953125 16.68687777 15.26953125 20.4921875 C14.52703125 21.21921875 13.78453125 21.94625 13.01953125 22.6953125 C10.13446866 25.6295523 8.20904208 28.66034894 6.26953125 32.2421875 C5.58203125 33.48697917 4.89453125 34.73177083 4.20703125 35.9765625 C3.87832031 36.57791016 3.54960938 37.17925781 3.2109375 37.79882812 C2.38640972 39.28195175 1.51881993 40.74096692 0.64453125 42.1953125 C-1.87071299 46.39691368 -3.64776419 49.44706255 -2.73046875 54.4921875 C-1.26389861 57.8884552 -0.38876464 59.17069416 2.95703125 60.8046875 C3.72015625 61.0315625 4.48328125 61.2584375 5.26953125 61.4921875 C5.26953125 61.8221875 5.26953125 62.1521875 5.26953125 62.4921875 C0.67975087 62.5914838 -3.90939663 62.66385498 -8.5 62.71191406 C-10.05968119 62.73195972 -11.61928788 62.75920407 -13.17871094 62.79394531 C-15.42792189 62.84277876 -17.67613465 62.86522565 -19.92578125 62.8828125 C-20.96208176 62.91378021 -20.96208176 62.91378021 -22.01931763 62.94537354 C-27.05835352 62.94767941 -29.86399781 61.66353841 -33.73046875 58.4921875 C-36.63076833 54.14173813 -36.55383705 50.59707098 -35.73046875 45.4921875 C-34.01403299 41.19892906 -31.73460765 37.32408078 -29.35546875 33.3671875 C-28.7200415 32.27639893 -28.08461426 31.18561035 -27.42993164 30.06176758 C-25.55296992 26.85766599 -23.64564139 23.67355612 -21.73046875 20.4921875 C-20.73691221 18.81123749 -19.74341567 17.13025202 -18.75 15.44921875 C-17.89226935 14.02426395 -17.03182553 12.60093678 -16.16796875 11.1796875 C-15.59780029 10.23101807 -15.59780029 10.23101807 -15.01611328 9.26318359 C-11.0982711 3.00887018 -7.47673979 -0.42157405 0 0 Z " fill="#1871E1" transform="translate(35.73046875,18.5078125)"/>
<path d="M0 0 C1.92236328 0.046875 1.92236328 0.046875 4 1 C5.64404297 3.265625 5.64404297 3.265625 7.2421875 6.25 C7.83386719 7.33410156 8.42554687 8.41820312 9.03515625 9.53515625 C9.64230469 10.67855469 10.24945313 11.82195313 10.875 13 C16.2506056 22.97666157 21.6512978 32.354468 29 41 C29 41.33 29 41.66 29 42 C23.84052654 42.07440448 18.68136849 42.12872191 13.52148438 42.16479492 C11.76784827 42.17983995 10.01424953 42.20028104 8.26074219 42.22631836 C5.73362991 42.26289121 3.20701704 42.2797692 0.6796875 42.29296875 C-0.48785568 42.31619453 -0.48785568 42.31619453 -1.6789856 42.33988953 C-6.52630702 42.34137318 -9.78919432 41.65960332 -14 39 C-17.00047076 35.2994194 -17.33176789 32.67967338 -17 28 C-16.00390625 25.53515625 -16.00390625 25.53515625 -14.5625 23.0625 C-13.75232422 21.65871094 -13.75232422 21.65871094 -12.92578125 20.2265625 C-12.29027344 19.16179688 -11.65476562 18.09703125 -11 17 C-10.22228073 15.67469946 -9.44495656 14.34916701 -8.66796875 13.0234375 C-7.86324441 11.66071039 -7.05726273 10.29872494 -6.25 8.9375 C-5.86142822 8.28209229 -5.47285645 7.62668457 -5.07250977 6.95141602 C-3.53232845 4.39004579 -2.12193842 2.12193842 0 0 Z " fill="#1E5CB9" transform="translate(49,39)"/>
</svg>
